<svg width="153" height="51" viewBox="0 0 153 51" fill="none" xmlns="http://www.w3.org/2000/svg">
<rect x="0.760742" width="152" height="43" rx="8" fill="#E9F7EF"/>
<circle cx="29.7607" cy="21.5" r="13" fill="#BBF3D2"/>
<path d="M33.9441 17.6033C33.3592 17.6033 32.9024 17.1317 32.5905 16.6369C32.5455 16.5654 32.496 16.4964 32.442 16.43C32.1812 16.1006 31.8279 15.8536 31.3819 15.6889C30.9358 15.5243 30.4281 15.4419 29.8586 15.4419C29.2616 15.4419 28.7367 15.5345 28.2838 15.7198C27.831 15.9051 27.481 16.1658 27.234 16.502C26.987 16.8314 26.8635 17.2088 26.8635 17.6342C26.8635 18.2655 27.1208 18.7526 27.6354 19.0957C28.1569 19.4319 28.8053 19.6927 29.5807 19.8779L31.0113 20.2587C32.2533 20.5675 33.2791 21.041 34.0887 21.6791C34.9053 22.3172 35.3135 23.247 35.3135 24.4683C35.3135 25.3123 35.094 26.0671 34.6548 26.7326C34.2225 27.3914 33.5878 27.906 32.7507 28.2765C31.9205 28.647 30.9324 28.8323 29.7865 28.8323C28.675 28.8323 27.7109 28.6539 26.8944 28.2971C26.0847 27.9403 25.4466 27.436 24.98 26.7841C24.7372 26.4398 24.5509 26.0611 24.421 25.648C24.224 25.0212 24.7629 24.458 25.4199 24.458C26.0143 24.458 26.4742 24.9427 26.7681 25.4593C26.8313 25.5704 26.9042 25.6757 26.987 25.7755C27.2889 26.1323 27.68 26.3999 28.1603 26.5783C28.6475 26.7567 29.1861 26.8424 29.7762 26.8356C30.4075 26.8356 30.9736 26.7361 31.4745 26.5371C31.9754 26.3381 32.3665 26.0568 32.6478 25.6931C32.9291 25.3295 33.0698 24.9075 33.0698 24.4272C33.0698 24.0155 32.9532 23.6655 32.7199 23.3773C32.4866 23.0891 32.1675 22.8559 31.7627 22.6775C31.3578 22.4991 30.8569 22.3309 30.26 22.1731L28.4897 21.71C27.2409 21.3669 26.2803 20.8763 25.6078 20.2382C24.9423 19.5932 24.6129 18.7664 24.6198 17.7577C24.6198 16.9137 24.8462 16.1658 25.2991 15.514C25.7588 14.8621 26.3901 14.3612 27.1929 14.0113C28.0025 13.6545 28.9083 13.4761 29.91 13.4761C30.905 13.4761 31.7935 13.6545 32.5758 14.0113C33.3648 14.3612 33.979 14.8518 34.4181 15.4831C34.6365 15.7889 34.8031 16.1145 34.9179 16.4598C35.1195 17.0666 34.5834 17.6033 33.9441 17.6033Z" fill="#00C696"/>
<path d="M29.9512 12.5L29.9512 14.3291" stroke="#00C696" stroke-width="2" stroke-linecap="round"/>
<path d="M29.9512 27.918L29.9512 29.7471" stroke="#00C696" stroke-width="2" stroke-linecap="round"/>
<path d="M57.5127 19.702H59.9067V22.6H57.5127V19.702ZM65.1267 12.934H67.5207V22.582H65.1267V12.934ZM53.7507 20.44L53.4987 18.784C56.7027 18.784 60.6447 18.784 64.1547 18.442L64.2807 19.918C60.6627 20.422 56.8647 20.458 53.7507 20.44ZM55.8567 23.086H67.5207V26.992H58.2507V28.306H55.8927V25.498H65.1447V24.706H55.8567V23.086ZM55.8927 27.856H67.8987V29.494H55.8927V27.856ZM62.1747 20.656H65.8647V22.078H62.1747V20.656ZM58.7907 13.168C61.2747 13.168 62.9487 14.158 62.9487 15.67C62.9487 17.2 61.2747 18.172 58.7907 18.172C56.2887 18.172 54.6147 17.2 54.6147 15.67C54.6147 14.158 56.2887 13.168 58.7907 13.168ZM58.7907 14.734C57.5847 14.734 56.8467 15.058 56.8467 15.67C56.8467 16.282 57.5847 16.588 58.7907 16.588C59.9787 16.588 60.7167 16.282 60.7167 15.67C60.7167 15.058 59.9787 14.734 58.7907 14.734ZM72.5579 18.586V14.842H78.6599V28H74.4659V18.586H72.5579ZM80.1434 21.232C80.1434 19.156 80.5814 17.524 81.4574 16.336C82.3454 15.148 83.7074 14.554 85.5434 14.554C87.3674 14.554 88.7234 15.154 89.6114 16.354C90.4994 17.542 90.9434 19.168 90.9434 21.232C90.9434 23.308 90.4994 24.946 89.6114 26.146C88.7234 27.334 87.3674 27.928 85.5434 27.928C83.7074 27.928 82.3454 27.334 81.4574 26.146C80.5814 24.946 80.1434 23.308 80.1434 21.232ZM87.0014 21.232C87.0014 20.272 86.9054 19.552 86.7134 19.072C86.5214 18.58 86.1314 18.334 85.5434 18.334C84.9434 18.334 84.5474 18.58 84.3554 19.072C84.1634 19.552 84.0674 20.272 84.0674 21.232C84.0674 22.204 84.1634 22.936 84.3554 23.428C84.5474 23.908 84.9434 24.148 85.5434 24.148C86.1314 24.148 86.5214 23.908 86.7134 23.428C86.9054 22.936 87.0014 22.204 87.0014 21.232ZM92.0614 21.232C92.0614 19.156 92.4994 17.524 93.3754 16.336C94.2634 15.148 95.6254 14.554 97.4614 14.554C99.2854 14.554 100.641 15.154 101.529 16.354C102.417 17.542 102.861 19.168 102.861 21.232C102.861 23.308 102.417 24.946 101.529 26.146C100.641 27.334 99.2854 27.928 97.4614 27.928C95.6254 27.928 94.2634 27.334 93.3754 26.146C92.4994 24.946 92.0614 23.308 92.0614 21.232ZM98.9194 21.232C98.9194 20.272 98.8234 19.552 98.6314 19.072C98.4394 18.58 98.0494 18.334 97.4614 18.334C96.8614 18.334 96.4654 18.58 96.2734 19.072C96.0814 19.552 95.9854 20.272 95.9854 21.232C95.9854 22.204 96.0814 22.936 96.2734 23.428C96.4654 23.908 96.8614 24.148 97.4614 24.148C98.0494 24.148 98.4394 23.908 98.6314 23.428C98.8234 22.936 98.9194 22.204 98.9194 21.232ZM104.609 14.302H112.547V22.348H104.609V14.302ZM110.189 16.192H106.967V20.458H110.189V16.192ZM114.851 12.934H117.245V25.084H114.851V12.934ZM116.561 17.74H119.459V19.702H116.561V17.74ZM106.499 27.406H117.839V29.314H106.499V27.406ZM106.499 23.896H108.893V28.36H106.499V23.896ZM125.02 21.484H127.414V25.138H125.02V21.484ZM132.328 12.934H134.722V25.552H132.328V12.934ZM122.716 27.406H135.082V29.314H122.716V27.406ZM122.716 24.364H125.11V27.91H122.716V24.364ZM120.916 22.204L120.628 20.296C123.67 20.296 127.738 20.26 131.23 19.81L131.374 21.52C127.828 22.114 123.922 22.204 120.916 22.204ZM129.178 22.618H132.85V24.256H129.178V22.618ZM125.992 13.51C128.422 13.51 130.132 14.716 130.132 16.48C130.132 18.262 128.422 19.45 125.992 19.45C123.544 19.45 121.834 18.262 121.834 16.48C121.834 14.716 123.544 13.51 125.992 13.51ZM125.992 15.256C124.876 15.256 124.102 15.67 124.102 16.48C124.102 17.29 124.876 17.704 125.992 17.704C127.09 17.704 127.864 17.29 127.864 16.48C127.864 15.67 127.09 15.256 125.992 15.256Z" fill="#00C696"/>
<path d="M78.433 50.25C78.2406 50.5833 77.7594 50.5833 77.567 50.25L71.5048 39.75C71.3124 39.4167 71.5529 39 71.9378 39L84.0622 39C84.4471 39 84.6876 39.4167 84.4952 39.75L78.433 50.25Z" fill="#E9F7EF"/>
</svg>
