<svg width="150" height="48" viewBox="0 0 150 48" fill="none" xmlns="http://www.w3.org/2000/svg">
<g clip-path="url(#clip0_2_8282)">
<rect width="150" height="39" rx="8" fill="white"/>
<path d="M14.034 11.312H26.454V13.094H14.034V11.312ZM14.16 15.146H26.328V16.928H14.16V15.146ZM16.158 12.014H18.552V16.37H16.158V12.014ZM21.936 12.014H24.33V16.37H21.936V12.014ZM12.72 17.792H27.786V19.664H12.72V17.792ZM19.038 18.926H21.432V21.248H19.038V18.926ZM14.448 20.726H25.968V24.866H16.824V26.414H14.466V23.264H23.61V22.436H14.448V20.726ZM14.466 25.748H26.4V27.494H14.466V25.748ZM29.9266 21.896H31.3306C34.1386 21.896 36.2806 21.86 38.7646 21.464L38.9806 23.372C36.4606 23.768 34.1926 23.84 31.3306 23.84H29.9266V21.896ZM29.9266 12.32H37.7566V14.264H32.3386V22.526H29.9266V12.32ZM31.7626 16.946H37.5226V18.818H31.7626V16.946ZM39.9346 10.934H42.3466V27.602H39.9346V10.934ZM41.8066 17.252H44.7586V19.232H41.8066V17.252ZM57.2852 10.952H59.6972V20.366H57.2852V10.952ZM48.6092 21.122H59.6972V27.422H48.6092V21.122ZM57.3392 22.994H50.9492V25.532H57.3392V22.994ZM50.6252 11.708C53.2172 11.708 55.1432 13.364 55.1432 15.704C55.1432 18.026 53.2172 19.7 50.6252 19.7C48.0332 19.7 46.0892 18.026 46.0892 15.704C46.0892 13.364 48.0332 11.708 50.6252 11.708ZM50.6252 13.688C49.3652 13.688 48.4292 14.426 48.4292 15.704C48.4292 16.964 49.3652 17.702 50.6252 17.702C51.8852 17.702 52.8032 16.964 52.8032 15.704C52.8032 14.426 51.8852 13.688 50.6252 13.688ZM66.8598 22.814L65.0058 28.16H62.4858L63.3318 22.814H66.8598ZM71.8227 12.464H81.0207V14.372H71.8227V12.464ZM71.6427 23.804L71.3907 21.842C74.2887 21.842 78.2127 21.806 81.5067 21.392L81.6327 23.138C78.2667 23.732 74.4867 23.804 71.6427 23.804ZM73.2447 13.958H75.5667V22.364H73.2447V13.958ZM77.2767 13.958H79.5987V22.364H77.2767V13.958ZM82.2627 10.934H84.6747V27.602H82.2627V10.934ZM84.1347 17.252H87.0867V19.214H84.1347V17.252ZM89.9473 19.52H101.665V21.392H89.9473V19.52ZM88.1833 23.75H103.267V25.694H88.1833V23.75ZM89.9473 12.14H101.521V14.066H92.3773V20.042H89.9473V12.14ZM91.6393 15.812H101.143V17.666H91.6393V15.812ZM105.372 21.896H106.776C109.584 21.896 111.726 21.86 114.21 21.464L114.426 23.372C111.906 23.768 109.638 23.84 106.776 23.84H105.372V21.896ZM105.372 12.32H113.202V14.264H107.784V22.526H105.372V12.32ZM107.208 16.946H112.968V18.818H107.208V16.946ZM115.38 10.934H117.792V27.602H115.38V10.934ZM117.252 17.252H120.204V19.232H117.252V17.252ZM132.731 10.952H135.143V20.366H132.731V10.952ZM124.055 21.122H135.143V27.422H124.055V21.122ZM132.785 22.994H126.395V25.532H132.785V22.994ZM126.071 11.708C128.663 11.708 130.589 13.364 130.589 15.704C130.589 18.026 128.663 19.7 126.071 19.7C123.479 19.7 121.535 18.026 121.535 15.704C121.535 13.364 123.479 11.708 126.071 11.708ZM126.071 13.688C124.811 13.688 123.875 14.426 123.875 15.704C123.875 16.964 124.811 17.702 126.071 17.702C127.331 17.702 128.249 16.964 128.249 15.704C128.249 14.426 127.331 13.688 126.071 13.688Z" fill="#40E2E8"/>
<path d="M17.433 47.25C17.2406 47.5833 16.7594 47.5833 16.567 47.25L11.3708 38.25C11.1784 37.9167 11.4189 37.5 11.8038 37.5L22.1962 37.5C22.5811 37.5 22.8216 37.9167 22.6292 38.25L17.433 47.25Z" fill="white"/>
</g>
<defs>
<clipPath id="clip0_2_8282">
<rect width="150" height="48" fill="white"/>
</clipPath>
</defs>
</svg>
