<svg width="56" height="56" viewBox="0 0 56 56" fill="none" xmlns="http://www.w3.org/2000/svg">
<rect width="56" height="56" rx="8" fill="white" fill-opacity="0.4"/>
<g clip-path="url(#clip0_2_8379)">
<path d="M28.0006 44.132C27.7859 44.132 27.5725 44.0768 27.3801 43.9657L14.4838 36.5202C14.0998 36.2987 13.8634 35.8885 13.8634 35.4455V20.5545C13.8634 20.1115 14.0998 19.7013 14.4838 19.4798L27.3801 12.0343C27.7642 11.8128 28.237 11.8128 28.621 12.0343L41.5161 19.4798C41.9002 19.7013 42.1366 20.1115 42.1366 20.5545V35.4455C42.1366 35.8885 41.9002 36.2987 41.5161 36.5202L28.621 43.9657C28.4287 44.0768 28.2153 44.132 28.0006 44.132ZM16.3452 34.7289L28.0006 41.4578L39.6547 34.7289V21.2711L28.0006 14.5422L16.3452 21.2711V34.7289Z" fill="white"/>
<path d="M28.0006 44.132C27.3156 44.132 26.7597 43.576 26.7597 42.891V28C26.7597 27.315 27.3156 26.759 28.0006 26.759C28.6856 26.759 29.2416 27.315 29.2416 28V42.891C29.2416 43.576 28.6856 44.132 28.0006 44.132Z" fill="white"/>
<path d="M27.9994 29.2408C27.7891 29.2408 27.5756 29.1875 27.3802 29.0739L14.4839 21.6284C13.8901 21.2865 13.6872 20.5277 14.0291 19.9339C14.3722 19.3401 15.1286 19.136 15.7242 19.4797L28.6205 26.9253C29.2143 27.2678 29.4172 28.0266 29.0747 28.6204C28.8451 29.0187 28.4282 29.2408 27.9994 29.2408Z" fill="white"/>
<path d="M28.0019 29.2408C27.5731 29.2408 27.1562 29.0181 26.926 28.6204C26.5835 28.0266 26.7864 27.2678 27.3802 26.9253L40.2752 19.4797C40.8684 19.136 41.6272 19.3401 41.9703 19.9339C42.3128 20.5277 42.1099 21.2865 41.5161 21.629L28.6211 29.0746C28.4263 29.1875 28.2122 29.2408 28.0019 29.2408Z" fill="white"/>
</g>
<defs>
<clipPath id="clip0_2_8379">
<rect width="32" height="32" fill="white" transform="translate(12 12)"/>
</clipPath>
</defs>
</svg>
