<svg width="56" height="56" viewBox="0 0 56 56" fill="none" xmlns="http://www.w3.org/2000/svg">
<rect width="56" height="56" rx="8" fill="white" fill-opacity="0.4"/>
<path d="M33.1689 31.9854C31.9326 31.5898 30.5811 32.2119 30.084 33.3965C30.0547 33.4648 30.0273 33.5342 30.001 33.6035C28.4346 32.9277 27.0098 31.9854 25.7568 30.7949C25.7549 30.7939 25.7539 30.792 25.752 30.791C25.5654 30.6152 25.3848 30.4346 25.209 30.248C25.208 30.2461 25.2061 30.2451 25.2051 30.2432C24.0146 28.9902 23.0723 27.5654 22.3965 25.999C22.4658 25.9727 22.5352 25.9453 22.6045 25.916C23.7891 25.418 24.4092 24.0635 24.0146 22.8301C21.1836 14 21.1094 14 20.1992 14C16.7812 14 14 16.7812 14 20.1992C14 32.2197 23.7803 42 35.8008 42C39.2188 42 42 39.2188 42 35.8008C42 34.8906 42 34.8164 33.1689 31.9854ZM35.8008 40C24.8828 40 16 31.1172 16 20.1992C16 18.085 17.5713 16.3301 19.6064 16.042C19.9727 16.9688 20.7676 19.2539 22.1104 23.4404C22.1914 23.6943 22.0684 23.9717 21.8301 24.0723C21.5303 24.1973 21.2178 24.2881 20.8994 24.3408C20.6084 24.3887 20.3535 24.5625 20.2031 24.8164C20.0518 25.0693 20.0215 25.377 20.1182 25.6553C20.8945 27.8906 22.1182 29.8975 23.7549 31.6201C23.957 31.835 24.165 32.043 24.3799 32.2451C26.1025 33.8818 28.1094 35.1055 30.3447 35.8818C30.623 35.9795 30.9307 35.9473 31.1836 35.7969C31.4375 35.6465 31.6113 35.3916 31.6592 35.1006C31.7119 34.7822 31.8027 34.4697 31.9277 34.1709C32.0283 33.9316 32.3047 33.8105 32.5586 33.8896C36.7451 35.2324 39.0312 36.0273 39.958 36.3936C39.6699 38.4287 37.915 40 35.8008 40Z" fill="white"/>
<path d="M29.7354 19C33.7412 19 37 22.2588 37 26.2646C37 26.8174 37.4473 27.2646 38 27.2646C38.5527 27.2646 39 26.8174 39 26.2646C39 21.1562 34.8438 17 29.7354 17C29.1826 17 28.7354 17.4473 28.7354 18C28.7354 18.5527 29.1826 19 29.7354 19Z" fill="white"/>
<path d="M28 23.4902C30.4863 23.4902 32.5098 25.5137 32.5098 28C32.5098 28.5527 32.957 29 33.5098 29C34.0625 29 34.5098 28.5527 34.5098 28C34.5098 24.4102 31.5898 21.4902 28 21.4902C27.4473 21.4902 27 21.9375 27 22.4902C27 23.043 27.4473 23.4902 28 23.4902Z" fill="white"/>
</svg>
