<svg width="56" height="56" viewBox="0 0 56 56" fill="none" xmlns="http://www.w3.org/2000/svg">
<rect width="56" height="56" rx="8" fill="white" fill-opacity="0.4"/>
<path d="M40.9639 27H39.7036C39.4778 24.34 38.3549 21.7428 36.3242 19.7119C34.2941 17.6818 31.6985 16.5586 29.04 16.332V15C29.04 14.4478 28.5923 14 28.04 14C27.4878 14 27.04 14.4478 27.04 15V16.3316C24.379 16.5567 21.7805 17.6799 19.7485 19.7119C17.7175 21.7428 16.5943 24.34 16.3685 27H15.0361C14.4839 27 14.0361 27.4478 14.0361 28C14.0361 28.5522 14.4839 29 15.0361 29H16.3685C16.5943 31.66 17.7175 34.2572 19.7485 36.2881C21.7806 38.3201 24.379 39.4433 27.04 39.6683V41C27.04 41.5522 27.4878 42 28.04 42C28.5923 42 29.04 41.5522 29.04 41V39.668C31.6988 39.4413 34.2941 38.3182 36.3242 36.2881C38.3549 34.2572 39.4778 31.66 39.7036 29H40.9639C41.5166 29 41.9639 28.5522 41.9639 28C41.9639 27.4478 41.5166 27 40.9639 27ZM34.9102 34.874C33.27 36.5138 31.1848 37.4409 29.04 37.6618V36.4424C29.04 35.8901 28.5923 35.4424 28.04 35.4424C27.4878 35.4424 27.04 35.8901 27.04 36.4424V37.663C24.8926 37.4436 22.8044 36.5159 21.1626 34.874C19.5218 33.233 18.5944 31.1462 18.3743 29H19.5942C20.1465 29 20.5942 28.5522 20.5942 28C20.5942 27.4478 20.1465 27 19.5942 27H18.3743C18.5944 24.8538 19.5218 22.767 21.1626 21.126C22.8047 19.4843 24.8925 18.5564 27.04 18.3369V19.5576C27.04 20.1099 27.4878 20.5576 28.04 20.5576C28.5923 20.5576 29.04 20.1099 29.04 19.5576V18.3379C31.1848 18.5587 33.2707 19.4861 34.9102 21.126C36.551 22.767 37.4784 24.8538 37.6985 27H36.4062C35.8535 27 35.4062 27.4478 35.4062 28C35.4062 28.5522 35.8535 29 36.4062 29H37.6985C37.4784 31.1462 36.551 33.233 34.9102 34.874Z" fill="white"/>
<path d="M33.207 24.9492L30.6572 24.5625L29.5088 22.1309C29.2275 21.5352 28.6494 21.165 28 21.165C27.3506 21.165 26.7729 21.5352 26.4917 22.1304L25.3433 24.5625L22.793 24.9492C22.1704 25.0439 21.6577 25.4795 21.4556 26.0864C21.249 26.7061 21.4023 27.3774 21.8564 27.8398L23.727 29.7456L23.2837 32.4473C23.1763 33.104 23.4429 33.748 23.9805 34.1279C24.2671 34.3306 24.5996 34.4336 24.9336 34.4336C25.2056 34.4336 25.479 34.3652 25.7295 34.2275L28 32.9805L30.2705 34.2275C30.8301 34.5352 31.499 34.4966 32.0185 34.1284C32.5566 33.749 32.8232 33.105 32.7158 32.4468L32.2725 29.7451L34.1426 27.8403C34.5967 27.3784 34.751 26.7065 34.5449 26.0869C34.3428 25.48 33.8301 25.0439 33.207 24.9492ZM30.2773 29.9336L30.6406 32.1489L28.7954 31.1353C28.2974 30.8618 27.7026 30.8618 27.2046 31.1353L25.3594 32.1489L25.7231 29.9336C25.812 29.3921 25.6377 28.8364 25.2559 28.4478L23.6758 26.8384L25.8213 26.5127C26.3696 26.4287 26.8403 26.0747 27.081 25.5664L28 23.6201L28.9199 25.5684C29.1611 26.0757 29.6309 26.4287 30.1797 26.5132L32.3232 26.8384L30.7422 28.4487C30.3633 28.8364 30.1885 29.3911 30.2773 29.9336Z" fill="white"/>
</svg>
